<?xml version="1.0" standalone="no"?>
<!DOCTYPE svg PUBLIC "-//W3C//DTD SVG 20010904//EN"
 "http://www.w3.org/TR/2001/REC-SVG-20010904/DTD/svg10.dtd">
<svg version="1.0" xmlns="http://www.w3.org/2000/svg"
 width="512.000000pt" height="512.000000pt" viewBox="0 0 512.000000 512.000000"
 preserveAspectRatio="xMidYMid meet">

<g transform="translate(0.000000,512.000000) scale(0.100000,-0.100000)"
fill="#000000" stroke="none">
<path d="M3412 4077 l-813 -1042 -112 -67 c-104 -62 -1173 -568 -1200 -568 -7
0 -18 9 -24 19 -18 29 -121 105 -190 140 -84 42 -169 61 -278 61 -174 0 -312
-57 -435 -179 -132 -130 -198 -301 -187 -482 17 -273 202 -496 472 -570 67
-18 97 -21 185 -16 195 10 354 92 466 240 128 169 165 386 100 581 -14 39 -23
71 -23 71 1 1 70 33 153 72 147 69 162 73 513 158 199 49 364 85 367 82 6 -6
-12 -85 -111 -487 -58 -235 -68 -267 -133 -401 l-70 -146 -70 23 c-294 99
-626 -42 -758 -321 -46 -97 -64 -174 -64 -275 0 -280 177 -516 451 -603 14 -5
12 -26 -24 -182 -22 -96 -38 -177 -36 -179 2 -2 45 3 96 12 106 18 96 2 113
172 16 158 11 148 78 155 257 28 451 179 542 420 16 44 24 90 27 170 6 124 -7
197 -57 303 -31 67 -110 175 -141 195 -10 6 -19 18 -19 24 0 28 505 1095 568
1200 l66 113 1041 812 c572 446 1041 812 1043 814 2 1 -2 14 -10 28 l-13 26
-815 -495 c-447 -272 -815 -493 -817 -491 -2 1 219 369 491 817 480 790 494
814 473 826 -12 7 -24 12 -27 12 -3 0 -371 -469 -818 -1042z m-596 -1093 c28
-29 34 -43 34 -79 0 -37 -6 -50 -35 -80 -30 -29 -43 -35 -80 -35 -36 0 -50 6
-79 34 -31 29 -36 39 -36 81 0 40 5 52 34 81 29 29 41 34 81 34 42 0 52 -5 81
-36z m-1946 -524 c169 -27 316 -149 371 -309 84 -242 -38 -499 -281 -595 -61
-24 -206 -33 -267 -16 -99 28 -155 60 -222 128 -151 153 -182 352 -85 549 67
138 228 239 399 251 11 1 49 -3 85 -8z m1118 -1050 c256 -99 378 -391 264
-633 -123 -261 -436 -355 -677 -202 -73 46 -149 136 -181 214 -36 87 -44 221
-19 307 45 157 172 283 335 330 64 19 210 11 278 -16z"/>
<path d="M1070 4659 c-30 -12 -875 -852 -896 -891 -8 -15 -14 -42 -14 -61 0
-62 56 -85 123 -51 18 9 170 154 339 322 l307 305 53 4 c37 3 59 -1 73 -12 18
-15 3 -32 -343 -378 -233 -234 -362 -370 -362 -383 0 -26 19 -44 44 -44 14 0
144 123 386 365 l366 365 34 -35 34 -35 -367 -368 c-202 -202 -367 -374 -367
-383 0 -21 20 -39 45 -39 13 0 140 120 380 360 198 198 365 360 371 360 5 0
23 -14 39 -30 l29 -30 -367 -368 c-202 -202 -367 -374 -367 -383 0 -21 20 -39
45 -39 13 0 140 120 380 360 198 198 365 360 371 360 5 0 23 -14 39 -30 l29
-30 -367 -368 c-202 -202 -367 -373 -367 -380 0 -21 38 -52 57 -45 10 3 181
168 380 367 l363 361 32 -33 33 -32 -361 -363 c-199 -199 -364 -370 -367 -380
-7 -19 24 -57 45 -57 7 0 178 165 380 367 l368 368 32 -33 33 -32 -363 -363
c-296 -296 -362 -368 -362 -389 0 -25 23 -48 47 -48 4 0 173 165 375 367 l368
367 30 -29 c16 -16 30 -34 30 -39 0 -6 -162 -173 -360 -371 -240 -240 -360
-367 -360 -380 0 -25 18 -45 39 -45 9 0 181 165 383 367 l367 367 31 -29 c16
-16 30 -34 30 -39 0 -6 -162 -173 -360 -371 -240 -240 -360 -367 -360 -380 0
-25 18 -45 39 -45 9 0 181 165 383 367 l368 367 35 -34 35 -34 -307 -309 -308
-308 80 37 c44 20 98 45 120 55 25 11 120 99 260 238 l219 221 33 -32 33 -32
-127 -129 c-139 -140 -140 -138 27 -59 52 24 100 56 124 81 35 36 42 39 55 27
14 -12 28 -7 109 42 70 41 104 70 137 112 l44 57 -717 716 c-401 400 -729 721
-745 727 -34 12 -64 12 -97 -1z"/>
<path d="M2989 2755 c-44 -34 -71 -68 -120 -152 -65 -109 -243 -482 -235 -490
2 -3 37 6 78 20 40 13 100 27 133 31 54 6 67 4 124 -24 232 -111 455 -394 688
-870 256 -525 301 -610 375 -707 76 -100 199 -133 369 -99 254 51 559 261 559
385 0 34 -42 78 -957 993 l-958 957 -56 -44z"/>
<path d="M2185 2440 l-70 -19 -162 -164 c-159 -160 -178 -188 -151 -215 29
-29 55 -10 268 203 118 118 208 215 200 214 -8 0 -46 -9 -85 -19z"/>
<path d="M1850 2358 c-65 -17 -82 -26 -128 -71 -57 -56 -72 -88 -52 -112 27
-32 54 -16 165 95 60 61 105 110 100 109 -6 0 -44 -10 -85 -21z"/>
<path d="M2108 2092 c-130 -134 -155 -180 -127 -230 31 -56 145 -52 168 6 15
38 82 324 78 335 -1 5 -55 -45 -119 -111z"/>
</g>
</svg>
