<?xml version="1.0" standalone="no"?>
<!DOCTYPE svg PUBLIC "-//W3C//DTD SVG 20010904//EN"
 "http://www.w3.org/TR/2001/REC-SVG-20010904/DTD/svg10.dtd">
<svg version="1.0" xmlns="http://www.w3.org/2000/svg"
 width="512.000000pt" height="512.000000pt" viewBox="0 0 512.000000 512.000000"
 preserveAspectRatio="xMidYMid meet">

<g transform="translate(0.000000,512.000000) scale(0.100000,-0.100000)"
fill="#000000" stroke="none">
<path d="M0 2560 l0 -2560 2560 0 2560 0 0 2560 0 2560 -2560 0 -2560 0 0
-2560z m2375 2215 c14 -13 25 -33 25 -43 0 -11 -16 -232 -35 -492 -19 -260
-35 -475 -35 -476 0 -2 41 -4 90 -4 83 0 93 -2 115 -25 l25 -24 0 -480 0 -481
37 -47 c20 -27 49 -76 65 -111 48 -106 58 -178 58 -438 l0 -234 240 0 240 0 0
353 c0 363 6 436 42 547 46 143 166 331 247 389 l31 22 0 200 c0 199 0 200 25
224 22 23 32 25 120 25 l95 0 0 160 0 160 -255 0 -256 0 -24 25 c-33 32 -33
78 0 110 l24 25 551 0 551 0 24 -25 c33 -32 33 -78 0 -110 -20 -21 -34 -25
-80 -25 l-55 0 0 -160 0 -160 95 0 c88 0 98 -2 120 -25 25 -24 25 -25 25 -223
l0 -198 29 -21 c47 -36 150 -171 191 -254 22 -43 52 -118 67 -166 l28 -88 3
-965 c2 -745 0 -975 -9 -1010 -17 -59 -97 -141 -155 -158 -28 -8 -126 -12
-298 -12 -230 0 -256 -2 -256 -16 0 -77 -88 -189 -166 -212 -59 -17 -1689 -17
-1748 0 -78 23 -166 135 -166 212 0 14 -26 16 -256 16 -172 0 -270 4 -298 12
-55 16 -138 99 -154 154 -7 23 -12 67 -12 98 l0 56 -335 0 -336 0 -24 25 -25
24 0 255 c0 229 -13 427 -120 1894 -66 901 -120 1646 -120 1656 0 9 11 28 25
41 l24 25 991 0 991 0 24 -25z"/>
<path d="M490 4591 c0 -27 3 -63 6 -80 l7 -31 857 0 858 0 6 31 c3 17 6 53 6
80 l0 49 -870 0 -870 0 0 -49z"/>
<path d="M510 4317 c0 -2 45 -618 100 -1371 55 -752 100 -1380 100 -1397 l0
-29 285 0 285 0 0 438 c0 477 4 515 58 633 16 35 45 85 65 112 l37 47 0 481 0
480 25 24 24 25 341 0 c187 0 340 3 340 8 0 4 9 124 20 267 11 143 20 266 20
273 0 9 -177 12 -850 12 -467 0 -850 -1 -850 -3z"/>
<path d="M3920 3840 l0 -160 80 0 80 0 0 160 0 160 -80 0 -80 0 0 -160z"/>
<path d="M1600 3200 l0 -400 40 0 40 0 0 335 0 336 25 24 24 25 271 0 271 0
24 -25 25 -24 0 -336 0 -335 40 0 40 0 0 400 0 400 -400 0 -400 0 0 -400z"/>
<path d="M3680 3400 l0 -120 320 0 320 0 0 120 0 120 -320 0 -320 0 0 -120z"/>
<path d="M1840 3080 l0 -280 160 0 160 0 0 280 0 280 -160 0 -160 0 0 -280z
m244 121 c26 -27 31 -39 31 -81 0 -43 -5 -54 -33 -82 -28 -28 -39 -33 -82 -33
-43 0 -54 5 -82 33 -28 28 -33 39 -33 81 0 52 25 92 70 112 37 16 96 3 129
-30z"/>
<path d="M3568 3063 c-69 -73 -120 -150 -154 -232 -48 -119 -54 -183 -54 -562
l0 -349 335 0 336 0 24 -25 25 -24 0 -576 0 -575 255 0 256 0 24 25 25 24 0
926 c0 807 -2 936 -16 1003 -30 145 -88 255 -192 365 l-55 57 -377 0 -377 0
-55 -57z"/>
<path d="M1521 2594 c-17 -26 -41 -72 -53 -103 l-23 -56 -3 -833 -3 -832 25
-25 25 -25 256 0 255 0 0 575 0 576 25 24 24 25 256 0 256 0 -3 258 c-4 284
-9 310 -79 416 l-31 46 -448 0 -448 0 -31 -46z"/>
<path d="M2160 1600 l0 -160 880 0 880 0 0 160 0 160 -880 0 -880 0 0 -160z"/>
<path d="M720 1200 l0 -160 280 0 280 0 0 160 0 160 -280 0 -280 0 0 -160z"/>
<path d="M2160 905 l0 -376 25 -24 24 -25 831 0 831 0 24 25 25 24 0 376 0
375 -880 0 -880 0 0 -375z"/>
</g>
</svg>
